<!--?xml version="1.0" encoding="utf-8"?-->
<!-- Generator: Adobe Illustrator 15.1.0, SVG Export Plug-In . SVG Version: 6.00 Build 0)  -->

<svg version="1.1" id="_x32_" xmlns="http://www.w3.org/2000/svg" xmlns:xlink="http://www.w3.org/1999/xlink" x="0px" y="0px" width="512px" height="512px" viewBox="0 0 512 512" style="width: 256px; height: 256px; opacity: 1;" xml:space="preserve">
<style type="text/css">

	.st0{fill:#4B4B4B;}

</style>
<g>
	<path class="st0" d="M275.083,157.246c0.109,0.016,0.219,0.109,0.375,0.141l83.078-83.094c5.109-5.063,10.922-8.844,17.156-11.359
		c9.313-3.781,19.625-4.781,29.438-2.844c9.844,1.922,19.078,6.578,26.734,14.203c5.125,5.125,8.891,10.953,11.391,17.188
		c3.797,9.297,4.781,19.625,2.859,29.453c-1.922,9.813-6.578,19.078-14.25,26.734L315.739,263.792
		c-5.109,5.125-10.922,8.891-17.156,11.422c-9.297,3.781-19.641,4.719-29.438,2.828c-9.859-1.922-19.078-6.578-26.75-14.25
		c-4.172-4.156-7.406-8.734-9.844-13.656c-0.234-0.063-0.5-0.141-0.766-0.172c-5.703-1.078-11.813-0.484-17.141,1.75
		c-3.734,1.547-7.094,3.781-9.969,6.719l-1.703,1.688c-8.672,10.531-15.484,25.406-1.828,44.984
		c10.703,10.703,23.203,18.797,36.469,24.172c19.922,8.094,41.656,10.078,62.453,6.047c20.828-4,40.875-14.172,56.938-30.281
		l116.14-116.109c10.688-10.719,18.828-23.172,24.203-36.469c8.078-19.938,10.078-41.672,6.063-62.5
		c-4.031-20.781-14.188-40.844-30.266-56.906c-10.719-10.688-23.188-18.828-36.469-24.188c-19.953-8.094-41.656-10.094-62.484-6.078
		c-20.813,4.016-40.859,14.172-56.906,30.266L201.114,149.199c-0.438,0.422-0.813,0.875-1.25,1.328
		c0.172-0.031,0.328-0.094,0.469-0.094C225.442,145.417,251.301,147.761,275.083,157.246z"></path>
	<path class="st0" d="M230.364,349.746c-0.141-0.078-0.266-0.109-0.406-0.172l-83.078,83.079
		c-5.125,5.125-10.922,8.891-17.156,11.375c-9.313,3.797-19.625,4.797-29.438,2.875c-9.859-1.922-19.078-6.594-26.75-14.25
		c-5.125-5.109-8.875-10.922-11.375-17.141c-3.828-9.297-4.781-19.657-2.859-29.438c1.922-9.844,6.578-19.094,14.234-26.734
		l116.141-116.188c5.125-5.094,10.922-8.828,17.156-11.359c9.281-3.828,19.625-4.766,29.438-2.859
		c9.859,1.922,19.078,6.578,26.75,14.219c4.156,4.156,7.406,8.781,9.813,13.719c0.25,0.047,0.516,0.109,0.797,0.172
		c5.703,1.047,11.813,0.422,17.156-1.766c3.719-1.563,7.063-3.828,9.953-6.75l1.688-1.672c8.688-10.516,15.5-25.422,1.828-44.984
		c-10.688-10.688-23.172-18.781-36.453-24.172c-19.922-8.078-41.656-10.078-62.469-6.063c-20.828,4.016-40.859,14.219-56.906,30.297
		L32.254,318.058c-10.672,10.703-18.797,23.156-24.188,36.438c-8.078,20-10.078,41.688-6.063,62.516
		c4.016,20.797,14.188,40.844,30.25,56.922c10.703,10.672,23.203,18.797,36.484,24.203c19.938,8.063,41.641,10.109,62.5,6.063
		c20.813-4,40.844-14.188,56.891-30.266l116.172-116.172c0.422-0.406,0.797-0.875,1.234-1.266c-0.172,0-0.313,0.047-0.453,0.047
		C279.973,361.542,254.098,359.23,230.364,349.746z"></path>
	<path class="st0" d="M416.379,319.917c-52.813,0-95.625,42.844-95.625,95.625c0,52.813,42.813,95.672,95.625,95.672
		c52.796,0,95.625-42.859,95.625-95.672C512.004,362.761,469.176,319.917,416.379,319.917z M465.02,430.137h-31.891v34.063h-29.203
		v-34.063H367.77V400.98h36.156v-34.078h29.203v34.078h31.891V430.137z"></path>
</g>
</svg>
