<!--?xml version="1.0" encoding="utf-8"?-->
<!-- Generator: Adobe Illustrator 15.1.0, SVG Export Plug-In . SVG Version: 6.00 Build 0)  -->

<svg version="1.1" id="_x32_" xmlns="http://www.w3.org/2000/svg" xmlns:xlink="http://www.w3.org/1999/xlink" x="0px" y="0px" width="512px" height="512px" viewBox="0 0 512 512" style="width: 256px; height: 256px; opacity: 1;" xml:space="preserve">
<style type="text/css">

	.st0{fill:#4B4B4B;}

</style>
<g>
	<path class="st0" d="M437.023,74.977c-99.984-99.969-262.063-99.969-362.047,0c-99.969,99.984-99.969,262.063,0,362.047
		c99.969,99.969,262.078,99.969,362.047,0S536.992,174.945,437.023,74.977z M137.211,137.211
		c54.391-54.391,137.016-63.453,201.016-27.531L109.68,338.227C73.758,274.227,82.82,191.602,137.211,137.211z M374.805,374.789
		c-54.391,54.391-137.031,63.469-201.031,27.547l228.563-228.563C438.258,237.773,429.18,320.414,374.805,374.789z" style="fill: rgb(223, 86, 86);"></path>
</g>
</svg>
