<!--?xml version="1.0" encoding="utf-8"?-->
<!-- Generator: Adobe Illustrator 15.1.0, SVG Export Plug-In . SVG Version: 6.00 Build 0)  -->

<svg version="1.1" id="_x32_" xmlns="http://www.w3.org/2000/svg" xmlns:xlink="http://www.w3.org/1999/xlink" x="0px" y="0px" width="512px" height="512px" viewBox="0 0 512 512" style="width: 256px; height: 256px; opacity: 1;" xml:space="preserve">
<style type="text/css">

	.st0{fill:#4B4B4B;}

</style>
<g>
	<path class="st0" d="M474.719,176.063H339.781c-7.766,0-15.063-3.797-19.531-10.172c-4.453-6.375-5.531-14.516-2.875-21.828
		l27.219-74.844c2.656-7.313,1.563-15.469-2.875-21.828c-4.469-6.375-11.781-10.172-19.547-10.172h-3.578
		c-23.813,0-46.078,11.844-59.375,31.594L133.234,239.172v174.609l112.547,43.125c6.844,2.094,15.25,4.188,21.906,5.25
		l100.078,12.625c30.797,0,58.141-19.719,67.875-48.938l51.016-153.016c0,0,25.344-17.531,25.344-42.078v-23.125
		C512,189.375,493.656,176.063,474.719,176.063z"></path>
	<path class="st0" d="M84.844,214.625H11.938C5.344,214.625,0,219.969,0,226.563v228.594c0,6.563,5.344,11.906,11.938,11.906h72.906
		c6.578,0,11.922-5.344,11.922-11.906V226.563C96.766,219.969,91.422,214.625,84.844,214.625z"></path>
</g>
</svg>
