<!--?xml version="1.0" encoding="utf-8"?-->
<!-- Generator: Adobe Illustrator 18.1.1, SVG Export Plug-In . SVG Version: 6.00 Build 0)  -->

<svg version="1.1" id="_x32_" xmlns="http://www.w3.org/2000/svg" xmlns:xlink="http://www.w3.org/1999/xlink" x="0px" y="0px" viewBox="0 0 512 512" style="width: 256px; height: 256px; opacity: 1;" xml:space="preserve">
<style type="text/css">
	.st0{fill:#4B4B4B;}
</style>
<g>
	<path class="st0" d="M40.252,14.489C18.019,14.489,0,32.507,0,54.741c0,22.233,18.019,40.252,40.252,40.252
		c22.225,0,40.252-18.019,40.252-40.252C80.504,32.507,62.477,14.489,40.252,14.489z"></path>
	<rect x="148.122" y="14.489" class="st0" width="363.878" height="80.504"></rect>
	<path class="st0" d="M40.252,215.748C18.019,215.748,0,233.767,0,256c0,22.233,18.019,40.252,40.252,40.252
		c22.225,0,40.252-18.019,40.252-40.252C80.504,233.767,62.477,215.748,40.252,215.748z"></path>
	<rect x="148.122" y="215.748" class="st0" width="363.878" height="80.504"></rect>
	<path class="st0" d="M40.252,417.007C18.019,417.007,0,435.026,0,457.259c0,22.232,18.019,40.252,40.252,40.252
		c22.225,0,40.252-18.019,40.252-40.252C80.504,435.026,62.477,417.007,40.252,417.007z"></path>
	<rect x="148.122" y="417.007" class="st0" width="363.878" height="80.504"></rect>
</g>
</svg>
