<!--?xml version="1.0" encoding="utf-8"?-->
<!-- Generator: Adobe Illustrator 18.1.1, SVG Export Plug-In . SVG Version: 6.00 Build 0)  -->

<svg version="1.1" id="_x32_" xmlns="http://www.w3.org/2000/svg" xmlns:xlink="http://www.w3.org/1999/xlink" x="0px" y="0px" viewBox="0 0 512 512" style="width: 256px; height: 256px; opacity: 1;" xml:space="preserve">
<style type="text/css">
	.st0{fill:#4B4B4B;}
</style>
<g>
	<path class="st0" d="M173.68,222.301c-6.316,12.546-9.916,26.68-9.83,41.601c-0.086,25.626,10.267,48.877,26.945,65.727
		C207.38,346.393,230.554,356.84,256,356.84c15.101,0,29.492-3.685,42.038-10.181l-20.003-20.012
		c-6.848,2.545-14.304,3.865-22.035,3.865c-18.16,0-34.573-7.37-46.512-19.489c-11.93-12.016-19.309-28.608-19.309-47.12
		c0-7.551,1.234-14.75,3.6-21.503L173.68,222.301z"></path>
	<path class="st0" d="M340.077,301.989c5.271-11.587,8.168-24.485,8.168-38.087c0-25.54-10.362-48.801-27.032-65.65
		c-16.593-16.763-39.759-27.203-65.213-27.203c-13.687,0-26.766,3.068-38.439,8.425l20.45,20.45
		c5.708-1.672,11.758-2.546,17.989-2.546c18.169,0,34.582,7.371,46.521,19.48c12.016,12.025,19.395,28.608,19.395,47.044
		c0,6.05-0.798,11.93-2.375,17.552L340.077,301.989z"></path>
	<path class="st0" d="M62.487,422.747c-9.916,0-19.043-4.122-25.54-10.704c-6.487-6.582-10.618-15.796-10.618-25.806V156.043
		c0-10.011,4.131-19.224,10.618-25.806c6.497-6.582,15.71-10.704,25.72-10.704h8.245l-24.22-24.22
		c-10.97,2.803-20.8,8.596-28.437,16.404C7.028,123.038,0.094,138.842,0,156.043v230.194c0.094,17.201,7.028,32.996,18.255,44.318
		c11.056,11.236,26.508,18.255,43.444,18.435v0.086h338.757l-26.329-26.329H62.487z"></path>
	<path class="st0" d="M493.754,111.716l-0.094-0.086c-11.227-11.321-26.937-18.426-44.233-18.426h-52.125l-15.624-34.839
		c-10.002-22.472-32.294-37.128-57.13-37.128H187.462c-24.837,0-47.129,14.655-57.13,37.128l-10.448,23.432l19.927,19.917
		l14.561-32.644c5.794-13.078,18.787-21.504,33.091-21.504h137.085c14.39,0,27.288,8.425,33.082,21.504l16.062,35.893
		c3.865,8.691,12.375,14.484,21.94,14.57h53.796c9.916,0,19.138,4.122,25.54,10.704l0.086,0.086
		c6.496,6.496,10.618,15.624,10.618,25.72v230.194c0,10.096-4.122,19.224-10.618,25.806h-0.086
		c-4.208,4.293-9.564,7.541-15.624,9.213l20.098,20.097c5.271-2.897,10.096-6.496,14.218-10.704l0.094-0.094
		C504.981,419.147,512,403.438,512,386.237V156.043C512,138.842,504.981,123.132,493.754,111.716z"></path>
	<path class="st0" d="M448.956,177.452H384.72v64.244h64.236v-8.776V177.452z M431.403,224.144h-29.131v-29.14h29.131V224.144z"></path>
	
		<rect x="-81.267" y="242.838" transform="matrix(-0.7071 -0.7071 0.7071 -0.7071 247.0169 614.3181)" class="st0" width="664.009" height="26.324"></rect>
</g>
</svg>
